<svg width="78" height="91" viewBox="0 0 78 91" fill="none" xmlns="http://www.w3.org/2000/svg">
<path d="M35.2857 88.5146V76.4912L29.0513 80.2677L26 78.3074V74.0816L35.2857 68.4206V60.5188L27.8571 65.1655V56.7935L20.4286 60.7634V72.1194L17.3587 74.4513L14.8571 72.345V64.7389L4.50543 70.6577L0 68.7638V63.9692L10.5579 57.9594L3.71429 54.5052V50.1069L7.657 47.9703L17.3401 53.7867L24.0481 49.8358L23.8959 49.7125L17.0894 45.6877L23.7157 41.4638L17.0727 37.5148L7.39143 43.3008L3.71429 41.4638V37.0901L10.2923 33.3401L0 27.5521V22.7576L4.31043 20.6456L14.8571 26.7066V18.9792L17.615 16.8426L21.2234 19.0797L21.1194 30.6537L27.9407 34.6767L28.002 26.5037L35.2857 30.4831V22.5832L26 16.9184V12.721L29.0513 10.7304L35.2857 14.5069V2.51008L38.9889 0L42.7143 2.51008V14.5069L49.9683 10.6565L53.8571 12.9675V16.744L42.7143 22.5832V30.4831L50.1429 26.1853V34.781L57.5714 30.83V18.4616L60.2736 16.8198L63.1429 18.4597V26.3597L73.9923 20.5205L78 22.8296V27.3019L67.795 33.3117L74.2857 37.0161V41.2894L70.8871 43.1776L60.9941 37.1906L54.1617 41.6382L60.7527 45.8621L53.9574 49.8851L60.9626 53.6616L70.9707 48.0006L74.2857 50.3059V54.382L68.12 57.9594L78 63.9692V68.6898L73.3163 70.6558L63.1429 64.9911V72.4891L60.32 74.4778L57.5714 72.4891V61.1103L50.1429 56.9148V64.8166L42.7143 60.5169V68.4187L52 74.0797V78.552L48.9413 80.2658L42.7143 76.4931V88.5165L38.9889 91L35.2857 88.5146ZM32.5631 45.6744L36.0657 51.1875H42.5917L45.5873 45.6744L42.4227 39.8125H35.8967L32.5631 45.6744Z" fill="white"/>
</svg>
